<?xml version="1.0" standalone="no"?>
<!DOCTYPE svg PUBLIC "-//W3C//DTD SVG 20010904//EN"
 "http://www.w3.org/TR/2001/REC-SVG-20010904/DTD/svg10.dtd">
<svg version="1.0" xmlns="http://www.w3.org/2000/svg"
 width="1373.000000pt" height="1373.000000pt" viewBox="0 0 1373.000000 1373.000000"
 preserveAspectRatio="xMidYMid meet">
<metadata>
Created by potrace 1.14, written by Peter Selinger 2001-2017
</metadata>
<g transform="translate(0.000000,1373.000000) scale(0.100000,-0.100000)"
fill="#000000" stroke="none">
<path d="M0 6865 l0 -6865 6865 0 6865 0 0 6865 0 6865 -6865 0 -6865 0 0
-6865z m7300 3675 c369 -20 702 -88 1007 -206 65 -25 122 -49 126 -53 5 -5
-31 -12 -80 -15 -154 -12 -311 -57 -465 -131 -164 -80 -312 -181 -478 -327
-95 -83 -280 -280 -351 -373 -230 -301 -391 -645 -459 -985 -17 -81 -21 -132
-18 -225 3 -113 5 -125 36 -188 23 -46 47 -77 73 -97 64 -46 114 -52 351 -39
311 15 582 -8 768 -66 193 -62 344 -151 493 -294 269 -258 387 -595 387 -1101
0 -314 -47 -616 -142 -910 -105 -324 -158 -461 -276 -700 -108 -221 -250 -470
-443 -779 -76 -121 -45 -96 216 169 406 413 733 867 975 1355 199 400 328 828
361 1195 19 216 1 496 -46 695 -100 425 -319 715 -670 885 -198 96 -351 129
-642 138 l-202 7 -41 40 c-41 40 -42 41 -38 101 3 51 10 72 44 122 105 161
362 410 591 575 212 153 418 251 633 301 86 20 249 27 327 14 61 -10 62 -11
145 -101 514 -561 810 -1232 904 -2052 24 -205 24 -623 1 -833 -93 -832 -391
-1583 -897 -2257 -1061 -1413 -2823 -2040 -4294 -1528 -475 165 -871 417
-1227 780 -522 532 -833 1199 -945 2028 -24 176 -30 654 -10 861 84 878 427
1712 995 2421 63 79 68 83 106 83 116 -1 256 -57 341 -137 74 -69 110 -121
144 -206 43 -105 60 -200 67 -372 9 -229 -22 -401 -137 -775 -131 -428 -235
-914 -271 -1274 -15 -154 -6 -473 16 -575 23 -103 66 -220 106 -287 67 -113
297 -308 434 -369 223 -98 545 -101 789 -7 228 89 471 253 628 425 102 112
155 147 223 147 43 0 55 -4 78 -28 79 -82 49 -488 -60 -812 -83 -247 -216
-581 -279 -699 -18 -36 -32 -66 -31 -68 7 -6 171 167 242 257 326 410 584 952
740 1557 74 285 88 385 89 628 1 239 -12 330 -57 409 -74 131 -174 89 -339
-144 -148 -211 -255 -337 -392 -462 -154 -141 -220 -192 -346 -264 -111 -64
-214 -108 -318 -136 -106 -29 -334 -31 -437 -4 -478 127 -616 542 -434 1306
41 175 90 350 164 595 125 412 135 461 135 668 0 162 -21 292 -71 442 -50 152
-93 226 -184 319 -130 134 -287 204 -512 229 -19 2 -6 16 72 85 708 626 1579
998 2440 1041 83 5 155 9 160 9 6 1 89 -3 185 -8z"/>
</g>
</svg>
